<svg width="100" height="100" viewBox="0 0 100 100" fill="none" xmlns="http://www.w3.org/2000/svg">
<path d="M15.3516 65.7266C15.3516 65.7266 13.922 68.3673 13.8126 70.0157C13.7032 71.6641 14.8048 85.086 17.2188 88.0547C19.6329 91.0235 27.0079 98.836 48.7813 99.0547C70.5548 99.2735 81.6641 89.3751 82.8751 87.3985C84.086 85.4219 85.6251 76.1798 85.7345 68.9219C85.8438 61.6641 47.1329 66.7188 47.1329 66.7188L15.3516 65.7266Z" fill="#FBB75A"/>
<path d="M48.3438 83.3203C67.7031 83.8672 85.625 71.9922 85.625 71.9922L85.0781 77.9297C85.0781 77.9297 70.3438 89.2578 48.6719 88.7109C27 88.1641 14.4688 77.9297 14.4688 77.9297L13.9219 72.7578C13.9219 72.7578 31.4141 82.8359 48.3438 83.3203Z" fill="#F2A05B"/>
<path d="M50.7657 37.125C42.5157 37.1641 17.6641 39.1016 15.1329 49.6641C12.6016 60.2266 12.9298 70.125 13.3751 71C13.8126 71.8828 14.797 70.3594 17.1173 71.2188C20.086 72.3203 19.8673 80.3438 25.2579 81.7735C30.6485 83.2032 30.7579 75.836 36.9141 76.2735C43.0704 76.711 40.211 84.9688 48.3516 85.0703C56.711 85.1797 53.6095 76.8985 59.461 76.1641C65.2501 75.4297 62.211 84.4141 70.2423 83.2032C78.2735 81.9922 77.3438 70.5625 81.4532 69.3516C84.5704 68.4375 84.3048 71.5 85.7813 71.3672C86.9923 71.2578 86.5157 54.5 85.4141 50.7657C84.3126 47.0313 73.9688 37.0157 50.7657 37.125Z" fill="url(#paint0_radial_981_5318)"/>
<path d="M25.7421 60.7188C19.8906 58.2501 18 55.9141 17.0546 54.7266C16.3984 53.8985 15.4062 53.5704 14.8515 54.2344C14.3046 54.8907 14.5781 55.6094 15.1796 56.3204C15.7812 57.0391 18.4765 61.1563 25.4062 63.4141C31.5 65.3985 35.5234 65.6719 37.0625 65.7266C38.7734 65.7891 39.4843 63.6407 37.2265 63.3594C34.6406 63.0391 32.125 63.4141 25.7421 60.7188ZM43.3203 64.1485C41.8203 64.1094 41.2656 64.9532 41.2656 65.6172C41.2656 66.4219 41.9609 66.8673 43.1718 66.9376C44.3828 67.0079 45.0781 66.2032 45.0781 65.6563C45.0859 65.1016 44.75 64.1798 43.3203 64.1485Z" fill="#FDFFFF"/>
<path d="M19.6405 69.3594C18.953 70.0313 19.2421 70.8125 19.5702 71.2188C20.1093 71.8828 21.078 71.9922 21.578 71.6016C22.1483 71.1641 22.078 70.3516 21.7186 69.8125C21.2577 69.1094 20.3202 68.6875 19.6405 69.3594ZM21.5624 72.25C20.6171 72.7813 21.0389 73.9609 21.5468 74.9297C22.6327 76.9922 22.9764 78.6719 24.2264 79.5C25.4921 80.3359 27.0546 79.7578 26.9061 78.8906C26.6718 77.5078 25.8202 78.5547 25.0858 76.8047C24.7811 76.0781 24.1561 74.9141 23.4296 73.3438C23.0077 72.4219 22.5155 71.7109 21.5624 72.25ZM43.578 77.8203C42.6483 78.4844 43.2108 80.1641 44.3827 81.4844C45.5546 82.8047 47.203 83.8672 48.9999 83.3906C50.3905 83.0234 50.2811 81.4844 49.328 81.0469C48.3749 80.6094 47.2421 80.8672 46.2108 79.5078C45.7108 78.8438 45.0077 76.7969 43.578 77.8203ZM65.6561 76.375C64.7343 77.0547 65.6014 78.4688 66.1718 79.4453C66.7421 80.4219 68.6249 82.2969 69.7264 81.1875C70.5311 80.375 69.0155 79.3906 68.3046 78.3281C67.7733 77.5234 66.8827 75.4609 65.6561 76.375ZM64.0702 73.8281C63.4608 74.2734 63.5546 74.9766 63.7733 75.3672C64.0702 75.8828 65.0233 76.1016 65.5702 75.625C66.1014 75.1641 65.7889 74.4141 65.4999 74.0469C65.2108 73.6797 64.4764 73.5313 64.0702 73.8281Z" fill="#FCE9CA"/>
<path d="M67.5 30.9141C67.5 30.9141 61.4609 39.2422 61.8437 40.8984C62.1406 42.2031 63.5469 43.6016 66.5547 43.8047C69.5625 44.0078 71.4453 42.6094 71.875 41.2812C72.4531 39.5156 70.5703 33.8906 69.8906 32.7734C68.9297 31.1875 68.0625 30.9609 67.5 30.9141ZM79.9844 38.4297L73.4922 47.5234C73.4922 47.5234 73.6875 49.5156 75.6406 50.375C77.6797 51.2656 81.8437 51.3203 83.039 49.5781C84.3984 47.6016 83.8125 44.2031 83.125 42.1484C82.5937 40.5391 81.4687 38.2578 79.9844 38.4297ZM68.9922 48.7031L62.7109 58.3516C62.7109 58.3516 62.6406 60.7422 65.4765 61.4062C67.7265 61.9297 71.8594 61.9531 73.3984 60.6328C74.9375 59.3125 74.8125 56.6562 73.4844 53.8672C72.0312 50.8359 69.875 47.9844 68.9922 48.7031ZM53.3515 51.0703L45.125 61.0234C45.125 61.0234 44.9609 62.9453 46.9922 63.8828C49.6015 65.0937 53.6172 65.0312 55.6562 63.9375C57.4453 62.9766 57.7187 59.9297 57.0703 58.0234C56.539 56.4687 55.8047 55.1484 55.5312 54.4297C55.2578 53.7187 54.3359 51.5078 53.3515 51.0703ZM35.6406 47.7109L28.6328 58.6562C28.6328 58.6562 28.8515 61.2109 31.5234 61.7344C33.8281 62.1875 37.625 62.4531 38.9453 60.7969C40.2656 59.1406 40.3203 54.9375 39.0547 51.9687C37.789 49.0078 36.6875 48.1016 35.6406 47.7109ZM25 37.3906L24.0625 37.0547L17.8125 46.9297C17.8125 46.9297 17.6328 48.6719 19.0859 49.6016C20.4609 50.4844 24.8359 50.9219 27.1953 49.7656C29.5625 48.6094 29.3906 44.7344 27.7422 41.4062C26.2187 38.3203 25 37.3906 25 37.3906ZM36.4687 30.1016L30.3984 40.5781C30.3984 40.5781 30.664 41.9375 32.7578 42.5312C34.8125 43.1172 37.5 43.0078 38.875 41.9453C40.2578 40.8828 40.625 38.5469 39.9922 35.8359C39.5625 33.9844 37.8984 30.6328 36.4687 30.1016Z" fill="#EE5B4A"/>
<path d="M30.4765 51.5312C29.1718 54.3437 27.3437 58.5156 29.4296 59.8906C31.5156 61.2656 34.6015 59.0624 35.6953 54.9374C36.789 50.8124 36.9609 48.7499 35.914 47.8671C34.8749 46.9999 32.1796 47.8515 30.4765 51.5312ZM23.3984 36.7343C21.914 36.8281 20.2109 39.1249 19.3593 41.3828C18.5078 43.6406 17.5156 46.4453 17.8749 47.3515C18.2343 48.2578 20.6796 49.3593 21.7265 47.4374C22.7734 45.5156 22.5624 42.9453 22.7968 41.6328C23.2109 39.3203 24.9999 37.3984 24.9999 37.3984C24.9999 37.3984 24.3906 36.6718 23.3984 36.7343ZM35.164 29.6484C34.1015 29.7109 33.0937 30.1562 32.1874 33.1249C31.6953 34.7499 30.3046 36.6328 30.1718 38.4062C30.039 40.1874 30.4374 40.6484 30.4374 40.6484C30.4374 40.6484 32.9843 41.1406 33.9765 39.1562C34.9296 37.2578 34.6328 35.3203 34.9531 34.4218C35.2734 33.5156 36.7343 30.2265 36.7343 30.2265C36.7343 30.2265 36.0937 29.6015 35.164 29.6484Z" fill="#FD6F42"/>
<path d="M67.2422 30.8594C66.125 30.8047 64.4922 32.1875 63.4531 34.6562C62.4063 37.125 61.7734 39.8047 61.8203 40.5937C61.8672 41.3828 65.9922 41.4765 67.4453 39.0937C68.3594 37.5937 68.3125 33.5703 68.2109 32.6015C68.1172 31.625 68.4063 30.914 67.2422 30.8594ZM79.6406 38.3984C78.6797 38.5547 76.4141 39.1094 74.5859 43.0547C73.4453 45.5156 73.1016 47.8828 73.9297 48.2265C74.7578 48.5703 77.0156 48.914 78.0469 47.625C79.0781 46.3359 80.2188 42.8281 80.4766 41.0781C80.7266 39.3437 80.8984 38.1953 79.6406 38.3984ZM62.9453 59.0156C64.1797 60.1406 66.5313 59.0781 67.375 58.0781C68.6641 56.539 69.7422 53.3203 69.7969 51.0703C69.8359 49.4375 70.2109 48.5156 68.7813 48.5937C68.2891 48.625 66.9375 48.8672 65.375 51.1797C64.1328 53.0078 63.4219 54.4531 63.0078 56.2422C62.6563 57.7265 62.5859 58.6875 62.9453 59.0156ZM51.7266 50.5156C50.9297 50.4844 49.4141 50.9531 47.8516 53.539C46.2813 56.125 44.5 60.3047 45.2656 61.5937C46.0391 62.8828 47.9297 63.0234 49.8594 62.2265C51.7813 61.4297 53.1016 58.6484 53.2109 57.5234C53.3203 56.3984 54.0625 51.5859 53.4297 51.1172C52.7969 50.6562 52.4141 50.5469 51.7266 50.5156Z" fill="#FF6E45"/>
<path d="M81.4844 20.3359C81.4844 31.2188 64.0938 40.8672 50.5391 40.8672C36.9844 40.8672 19.7422 30.6328 19.7422 19.75C19.7422 8.86719 36.7422 0.203125 50.2891 0.203125C63.8359 0.203125 81.4844 9.45312 81.4844 20.3359Z" fill="url(#paint1_radial_981_5318)"/>
<path d="M56.8672 24.3125C57.1407 23.9297 62.2891 24.3594 62.75 24.4766C62.9688 24.5313 62.9141 44.1641 62.6407 44.3282C62.4063 44.4688 61.4844 45.3203 59.7266 45.3203C57.9688 45.3203 56.9766 44.7188 56.6485 44.4922C56.3204 44.2735 56.5938 24.6953 56.8672 24.3125Z" fill="#FEA8A8"/>
<path d="M47.414 29.1562C47.2031 29.3359 47.1406 48.2969 47.3046 48.4609C47.4687 48.625 48.5703 49.6172 50.7109 49.5625C52.8593 49.5078 53.8437 48.7344 54.0078 48.5703C54.1718 48.4062 54.1171 29.1562 53.9531 29.0469C53.789 28.9297 47.7421 28.875 47.414 29.1562Z" fill="#EC7FAE"/>
<path d="M38.1719 25.0859C37.9063 25.2422 37.8985 44.5 38.0079 44.6641C38.1172 44.8281 39.711 45.3828 41.1954 45.3828C42.6797 45.3828 44.1094 45.0547 44.2735 44.8906C44.4375 44.7266 44.3282 25.3125 44.1641 25.0938C44 24.875 38.4454 24.9219 38.1719 25.0859Z" fill="#93C7EE"/>
<path d="M50.7657 11.7188C51.0938 11.7188 51.5391 14.3047 52.1407 15.7891C52.7423 17.2734 55.0001 20.9609 54.1173 24.1484C53.1563 27.6406 47.711 28.3203 46.5313 23.7656C45.7032 20.5781 48.5079 17.2734 49.2266 15.7891C49.7188 14.7656 50.5391 11.7188 50.7657 11.7188Z" fill="url(#paint2_radial_981_5318)"/>
<path d="M59.6172 7.70312C59.6172 7.70312 58.8047 11.4063 57.8047 12.9844C56.375 15.2422 55.4687 18.3281 56.5937 20.8516C58.0234 24.0391 63.75 23.875 63.8516 18.4297C63.9062 15.5703 62.6562 14.0547 61.7656 12.4375C61.1562 11.3359 60 7.8125 59.6172 7.70312Z" fill="url(#paint3_radial_981_5318)"/>
<path d="M41.4141 8.3125C41.4141 8.3125 39.9297 12 38.9922 13.375C38.0547 14.75 36.3907 17.9922 37.3438 20.5781C38.5 23.7109 43.6172 24.0859 44.6016 19.9766C45.2578 17.2266 43.8282 15.1406 42.8438 12.8828C42.2266 11.4609 41.4141 8.3125 41.4141 8.3125Z" fill="url(#paint4_radial_981_5318)"/>
<defs>
<radialGradient id="paint0_radial_981_5318" cx="0" cy="0" r="1" gradientTransform="matrix(-0.697506 35.7624 -77.8524 -1.52021 51.0283 49.004)" gradientUnits="userSpaceOnUse">
<stop offset="0.445" stop-color="#FEEAC9"/>
<stop offset="0.565" stop-color="#FEE7C2"/>
<stop offset="0.741" stop-color="#FEDEAE"/>
<stop offset="0.952" stop-color="#FFCF8D"/>
<stop offset="1" stop-color="#FFCB85"/>
</radialGradient>
<radialGradient id="paint1_radial_981_5318" cx="0" cy="0" r="1" gradientUnits="userSpaceOnUse" gradientTransform="translate(50.618 20.5341) scale(30.4875 18.7712)">
<stop offset="0.034" stop-color="#FFE265" stop-opacity="0.7"/>
<stop offset="0.112" stop-color="#FFE575" stop-opacity="0.643"/>
<stop offset="0.417" stop-color="#FFF0B0" stop-opacity="0.422"/>
<stop offset="0.677" stop-color="#FFF8DB" stop-opacity="0.234"/>
<stop offset="0.88" stop-color="#FFFDF5" stop-opacity="0.087"/>
<stop offset="1" stop-color="white" stop-opacity="0"/>
</radialGradient>
<radialGradient id="paint2_radial_981_5318" cx="0" cy="0" r="1" gradientUnits="userSpaceOnUse" gradientTransform="translate(50.7102 28.1078) scale(15.1781 15.1781)">
<stop offset="0.17" stop-color="#FF9616"/>
<stop offset="0.654" stop-color="#FFD429"/>
</radialGradient>
<radialGradient id="paint3_radial_981_5318" cx="0" cy="0" r="1" gradientUnits="userSpaceOnUse" gradientTransform="translate(60.3219 24.0836) scale(14.8781 14.8781)">
<stop offset="0.17" stop-color="#FF9616"/>
<stop offset="0.654" stop-color="#FFD429"/>
</radialGradient>
<radialGradient id="paint4_radial_981_5318" cx="0" cy="0" r="1" gradientUnits="userSpaceOnUse" gradientTransform="translate(41.2672 24.0797) scale(14.7289 14.7289)">
<stop offset="0.17" stop-color="#FF9616"/>
<stop offset="0.654" stop-color="#FFD429"/>
</radialGradient>
</defs>
</svg>
