<svg width="85" height="85" viewBox="0 0 85 85" fill="none" xmlns="http://www.w3.org/2000/svg">
<path d="M65.7821 60.7086C65.7821 60.7086 55.7481 70.125 42.4802 70.125C29.2122 70.125 19.1849 60.7086 19.1849 60.7086C19.1849 60.7086 17.3188 51.7504 22.1399 36.2844C24.6833 28.1297 60.8747 27.2996 63.7102 34.4317C68.5313 46.5375 65.7821 60.7086 65.7821 60.7086Z" fill="#424242"/>
<path d="M19.1849 60.7085L22.3657 63.2585C22.3657 63.2585 22.3392 58.2117 23.8997 53.5035C24.4841 51.7437 26.5692 51.0066 28.1364 51.996L40.2821 59.6128C40.948 60.0297 41.7165 60.2535 42.502 60.2593C43.2876 60.2652 44.0593 60.0529 44.7313 59.646C50.5353 56.1265 65.6759 46.916 66.3665 46.3515C66.3665 46.3515 66.3665 45.216 66.081 43.7683L19.0122 43.8281L19.1849 60.7085Z" fill="#212121"/>
<path d="M81.5536 34.5512L43.8349 57.0164C43.0114 57.5078 41.9821 57.5078 41.1521 57.0164L3.44658 34.5512C2.39736 33.927 2.39736 32.4063 3.44658 31.782L41.1653 9.3168C41.9888 8.82539 43.0181 8.82539 43.8481 9.3168L81.5669 31.782C82.6095 32.4063 82.6095 33.927 81.5536 34.5512Z" fill="#424242"/>
<path d="M42.5266 55.3696C42.5199 55.3696 42.5066 55.3762 42.5 55.3762C42.3937 55.3762 42.2875 55.3497 42.1945 55.2899L2.77578 32.5657C2.77578 32.5657 2.5832 32.9309 2.77578 33.5883C2.97499 34.2458 3.28046 34.4583 3.44648 34.5579L41.1652 57.0231C41.577 57.2688 42.0418 57.395 42.5066 57.395H42.5332V55.3696H42.5266Z" fill="#9E9E9E"/>
<path d="M42.5 55.3696C42.5067 55.3696 42.52 55.3762 42.5266 55.3762C42.6329 55.3762 42.7391 55.3497 42.8321 55.2899L82.2508 32.5657C82.2508 32.5657 82.4434 32.9309 82.2508 33.5883C82.0516 34.2458 81.7461 34.4583 81.5801 34.5579L43.8614 57.0231C43.4497 57.2688 42.9848 57.395 42.52 57.395H42.4934V55.3696H42.5Z" fill="#616161"/>
<path d="M23.541 46.5242L23.7535 44.6582C23.7535 44.6582 40.0297 35.8062 41.6367 34.8765C43.2437 33.9468 44.9305 32.9109 45.6809 32.0808C47.009 30.6199 46.0527 29.7035 46.0527 29.7035C46.0527 29.7035 45.0035 31.4035 42.5 31.1046C41.0656 30.932 39.1996 29.7699 38.8875 29.2253C38.5754 28.6808 20.5129 42.4402 20.5129 42.4402L20.3867 44.6515L23.541 46.5242Z" fill="#424242"/>
<path d="M46.0528 29.7101C44.313 32.1406 41.3646 31.0781 41.3646 31.0781C41.3646 31.0781 32.1275 35.5074 31.7821 34.8367C31.4368 34.166 39.4122 30.0621 39.4122 30.0621C39.4122 30.0621 38.9673 28.4285 39.0138 27.7312C39.0138 27.7312 24.5903 36.9085 19.1782 39.9964C16.3427 41.6167 15.7384 43.1441 15.745 45.2957C15.745 46.2386 15.7583 49.2999 15.7716 51.1261C15.7716 51.4648 15.6255 51.7835 15.3665 51.996C14.9743 52.3173 14.6583 52.7217 14.4413 53.1798C14.2242 53.638 14.1116 54.1387 14.1114 54.6457C14.1114 55.6617 14.5564 56.5714 15.2603 57.2023C15.6388 57.541 15.5591 58.2714 15.5923 58.7429C15.6587 59.646 15.5923 60.0578 15.2204 60.8945C14.8552 61.7113 14.5165 62.548 14.2841 63.4113C14.1048 64.0753 13.9853 64.7593 13.8657 65.4367C13.0755 69.9722 12.7169 74.8199 10.6251 78.9902C10.5857 79.0681 10.5622 79.1531 10.5559 79.2402C10.5496 79.3273 10.5607 79.4148 10.5885 79.4976C10.6163 79.5804 10.6603 79.6568 10.7179 79.7225C10.7754 79.7881 10.8455 79.8417 10.9239 79.88C11.0817 79.9596 11.2645 79.9736 11.4324 79.9188C11.6004 79.8641 11.7399 79.7451 11.8204 79.5878C12.9095 77.4164 13.4739 75.039 13.9388 72.6816C13.9122 74.8132 13.8989 76.9648 13.8259 79.289C13.8126 79.7406 13.7794 80.6503 14.1911 80.8496C15.7384 81.5999 15.7384 79.289 15.7384 79.289C15.7384 79.289 15.7583 81.3675 17.8634 81.3675C19.9685 81.3675 20.1212 79.289 20.1212 79.289C20.1212 79.289 20.2739 81.1949 21.3564 81.1019C21.7946 81.0621 22.3724 80.7964 22.1665 78.5187C21.9607 76.2476 21.4493 68.1062 21.2302 65.5296C20.9247 61.9636 19.756 59.8453 19.5169 58.5835C19.4306 58.1054 19.4239 57.6074 19.8024 57.2953C20.1877 56.9796 20.4996 56.5838 20.7164 56.1354C20.9332 55.6871 21.0498 55.1968 21.058 54.6989C21.0662 54.2009 20.9659 53.7071 20.7639 53.2518C20.562 52.7965 20.2634 52.3907 19.8888 52.0625C19.7556 51.9461 19.6514 51.8003 19.5845 51.6366C19.5177 51.4729 19.49 51.2958 19.5036 51.1195C19.6298 49.3996 19.7692 46.9027 19.8821 46.325C20.3735 43.7285 21.6552 43.2636 22.97 42.4933C24.2849 41.7164 43.3302 33.0703 44.4392 32.3332C46.4911 30.9585 46.0528 29.7101 46.0528 29.7101Z" fill="#E2A610"/>
<path d="M46.0526 29.7101C44.4124 32.0277 41.0058 30.9917 41.0058 30.9917C41.0058 30.9917 32.2999 34.85 32.8776 34.1527C33.4487 33.4554 39.412 30.0621 39.412 30.0621C39.412 30.0621 38.9671 28.4285 39.0136 27.7312C39.0136 27.7312 24.3378 36.2113 18.6468 40.2886C17.1792 41.3445 15.3597 43.071 16.8405 44.791C17.5245 45.5812 18.846 45.7472 19.6893 45.123C20.2007 44.7511 20.5991 44.2066 21.0507 43.775C21.6085 43.2304 22.2858 42.8851 22.9499 42.4933C24.2647 41.7164 43.31 33.0703 44.419 32.3332C46.4909 30.9585 46.0526 29.7101 46.0526 29.7101Z" fill="#FFCA28"/>
<path d="M17.3388 61.0007C16.4622 61.0007 15.8712 60.9277 15.3333 60.8015C15.2373 60.7796 15.1524 60.7239 15.0939 60.6448C15.0355 60.5656 15.0073 60.4681 15.0145 60.3699L15.1872 57.8332C15.2071 57.5742 15.4528 57.3949 15.7052 57.4679C16.3028 57.6406 17.4981 57.8132 19.4505 57.4015C19.6895 57.3484 19.9286 57.5144 19.9552 57.7601L20.2208 60.2836C20.2407 60.4894 20.1079 60.682 19.9087 60.7285C18.8927 60.9609 18.1556 61.0007 17.3388 61.0007Z" fill="#9E740B"/>
<path d="M65.7821 60.7086C65.7821 60.7086 66.9575 54.5726 66.486 48.0449C66.4064 46.9425 65.729 45.9929 65.2044 49.8511C64.9056 52.0625 64.2548 58.6832 63.1458 62.8203C64.8392 61.5984 65.7821 60.7086 65.7821 60.7086ZM43.6489 24.4308C44.1337 24.5836 44.5786 24.9554 44.7048 25.4535C44.8708 26.1175 44.4524 26.7816 44.0009 27.2996C43.1177 28.3156 41.9024 29.2054 40.5544 29.159C40.1095 29.1457 39.6314 28.9996 39.3591 28.6476C39.1665 28.4019 39.1001 28.0832 39.0802 27.7711C38.9607 25.4933 41.5372 23.7668 43.6489 24.4308Z" fill="#616161"/>
</svg>
