<svg width="70" height="70" viewBox="0 0 70 70" fill="none" xmlns="http://www.w3.org/2000/svg">
<path d="M8.02075 22.0792C8.02075 14.4667 14.7203 8.02087 23.3333 8.02087C29.6974 8.02087 35.0699 11.5734 37.3974 16.5084C37.645 17.0332 38.0908 17.4382 38.637 17.6343C39.1832 17.8304 39.7849 17.8015 40.3097 17.554C40.8346 17.3065 41.2396 16.8606 41.4357 16.3144C41.6318 15.7682 41.6029 15.1666 41.3553 14.6417C38.2724 8.10837 31.3162 3.64587 23.3333 3.64587C12.6174 3.64587 3.64575 11.7484 3.64575 22.0792C3.64575 25.9 4.88825 29.4409 6.997 32.3692L4.92034 38.4709C3.87034 41.5596 7.30325 44.2313 10.0391 42.4667L15.4466 38.9725C16.411 39.3673 17.4124 39.6891 18.4508 39.938C19.0128 40.0662 19.6027 39.9674 20.0923 39.6631C20.5818 39.3588 20.9315 38.8735 21.0653 38.3128C21.199 37.7521 21.106 37.1612 20.8065 36.6687C20.507 36.1762 20.0251 35.8218 19.4658 35.6825C18.3411 35.4141 17.2488 35.0249 16.2078 34.5217L15.0995 33.988L9.93117 37.3275L11.9087 31.5088L11.1299 30.5696C9.13163 28.1907 8.03134 25.186 8.02075 22.0792ZM35.5833 42.6417C34.6208 39.7542 35.7583 36.1959 38.9082 35.2042C40.5416 34.7084 42.5832 35.1167 43.7499 36.6625C44.8582 35.0584 46.9582 34.7084 48.5916 35.2042C51.7416 36.1667 52.8791 39.7542 51.9166 42.6417C50.4291 47.2209 45.2082 49.5834 43.7499 49.5834C42.2916 49.5834 37.1291 47.25 35.5833 42.6417Z" fill="#FF6E45"/>
<path d="M43.7499 21.1458C31.4212 21.1458 21.1458 30.4645 21.1458 42.2916C21.1458 54.1187 31.4212 63.4375 43.7499 63.4375C46.9205 63.4423 50.0604 62.8167 52.987 61.597L59.4562 65.7766C62.3582 67.652 66.0012 64.8141 64.887 61.5416L62.4049 54.2383C64.9643 50.7805 66.3484 46.5936 66.3541 42.2916C66.3541 30.4645 56.0787 21.1458 43.7499 21.1458ZM25.5208 42.2916C25.5208 33.18 33.527 25.5208 43.7499 25.5208C53.9728 25.5208 61.9791 33.18 61.9791 42.2916C61.9678 46.0026 60.6537 49.5919 58.2662 52.4329L57.4874 53.375L60.0687 60.9641L53.3312 56.6066L52.2228 57.1433C49.5796 58.4145 46.6829 59.0706 43.7499 59.0625C33.527 59.0625 25.5208 51.4033 25.5208 42.2916ZM16.0416 16.0416C15.6548 16.0416 15.2839 16.1953 15.0104 16.4688C14.7369 16.7423 14.5833 17.1132 14.5833 17.5C14.5833 17.8867 14.7369 18.2577 15.0104 18.5312C15.2839 18.8046 15.6548 18.9583 16.0416 18.9583H30.6249C31.0117 18.9583 31.3826 18.8046 31.6561 18.5312C31.9296 18.2577 32.0833 17.8867 32.0833 17.5C32.0833 17.1132 31.9296 16.7423 31.6561 16.4688C31.3826 16.1953 31.0117 16.0416 30.6249 16.0416H16.0416ZM14.5833 29.1666C14.5833 28.7799 14.7369 28.4089 15.0104 28.1354C15.2839 27.8619 15.6548 27.7083 16.0416 27.7083H18.9583C19.345 27.7083 19.716 27.8619 19.9894 28.1354C20.2629 28.4089 20.4166 28.7799 20.4166 29.1666C20.4166 29.5534 20.2629 29.9243 19.9894 30.1978C19.716 30.4713 19.345 30.625 18.9583 30.625H16.0416C15.6548 30.625 15.2839 30.4713 15.0104 30.1978C14.7369 29.9243 14.5833 29.5534 14.5833 29.1666ZM16.0416 21.875C15.6548 21.875 15.2839 22.0286 15.0104 22.3021C14.7369 22.5756 14.5833 22.9465 14.5833 23.3333C14.5833 23.7201 14.7369 24.091 15.0104 24.3645C15.2839 24.638 15.6548 24.7916 16.0416 24.7916H24.7916C25.1784 24.7916 25.5493 24.638 25.8228 24.3645C26.0963 24.091 26.2499 23.7201 26.2499 23.3333C26.2499 22.9465 26.0963 22.5756 25.8228 22.3021C25.5493 22.0286 25.1784 21.875 24.7916 21.875H16.0416Z" fill="#FF6E45"/>
</svg>
