<svg width="40" height="40" viewBox="0 0 40 40" fill="none" xmlns="http://www.w3.org/2000/svg">
<path d="M0 20C0 8.95431 8.95431 0 20 0C31.0457 0 40 8.95431 40 20C40 31.0457 31.0457 40 20 40C8.95431 40 0 31.0457 0 20Z" fill="white" fill-opacity="0.2"/>
<g clip-path="url(#clip0_258_362)">
<path d="M20.0708 12.5117C19.7896 12.5117 19.5083 12.5586 19.2271 12.6523L9.3833 16.2031C9.03174 16.3672 8.84424 16.6367 8.8208 17.0117C8.84424 17.3867 9.03174 17.6562 9.3833 17.8203L11.4224 18.5586C10.8364 19.4727 10.5317 20.5039 10.5083 21.6523V22.6367C10.438 23.668 10.1802 24.6172 9.73486 25.4844C9.50049 25.9297 9.23096 26.3633 8.92627 26.7852C8.80908 26.9492 8.78564 27.125 8.85596 27.3125C8.92627 27.5 9.05518 27.6289 9.24268 27.6992L11.4927 28.2617C11.6567 28.2852 11.8091 28.2617 11.9497 28.1914C12.0669 28.0977 12.1489 27.9688 12.1958 27.8047C12.4302 26.2578 12.4067 24.9922 12.1255 24.0078C12.0083 23.4922 11.8442 23 11.6333 22.5312V21.6523C11.6567 20.5742 11.9849 19.6133 12.6177 18.7695C13.063 18.2305 13.6372 17.8203 14.3403 17.5391L19.8599 15.3594C20.188 15.2656 20.4341 15.3711 20.5981 15.6758C20.6919 16.0039 20.5864 16.25 20.2817 16.4141L14.7622 18.5586C14.3169 18.7461 13.9419 19.0039 13.6372 19.332L19.2271 21.3711C19.5083 21.4648 19.7896 21.5117 20.0708 21.5117C20.3521 21.5117 20.6333 21.4648 20.9146 21.3711L30.7583 17.8203C31.1099 17.6562 31.2974 17.3867 31.3208 17.0117C31.2974 16.6367 31.1099 16.3672 30.7583 16.2031L20.9146 12.6523C20.6333 12.5586 20.3521 12.5117 20.0708 12.5117ZM13.3208 25.7305C13.3677 26.3867 14.0239 26.9609 15.2896 27.4531C16.5552 27.9688 18.1489 28.2383 20.0708 28.2617C21.9927 28.2383 23.5864 27.9688 24.8521 27.4531C26.1177 26.9609 26.7739 26.3867 26.8208 25.7305L26.2935 20.6328L21.3013 22.4258C20.9028 22.5664 20.4927 22.6367 20.0708 22.6367C19.6489 22.6367 19.2505 22.5664 18.8755 22.4258L13.8481 20.6328L13.3208 25.7305Z" fill="white"/>
</g>
<defs>
<clipPath id="clip0_258_362">
<rect width="22.5" height="18" fill="white" transform="translate(8.75 11)"/>
</clipPath>
</defs>
</svg>
