<svg width="40" height="40" viewBox="0 0 40 40" fill="none" xmlns="http://www.w3.org/2000/svg">
<path d="M0 20C0 8.95431 8.95431 0 20 0C31.0457 0 40 8.95431 40 20C40 31.0457 31.0457 40 20 40C8.95431 40 0 31.0457 0 20Z" fill="white" fill-opacity="0.2"/>
<g clip-path="url(#clip0_258_380)">
<path d="M16.414 14.4805C16.4374 13.5195 16.8593 12.793 17.6796 12.3008C18.5234 11.832 19.3671 11.832 20.2109 12.3008C21.0312 12.793 21.4531 13.5195 21.4765 14.4805C21.4531 15.4414 21.0312 16.168 20.2109 16.6602C19.3671 17.1289 18.5234 17.1289 17.6796 16.6602C16.8593 16.168 16.4374 15.4414 16.414 14.4805ZM12.4765 16.4844C12.7109 16.1562 13.0155 15.9688 13.3905 15.9219C13.7655 15.8516 14.1171 15.9336 14.4452 16.168L15.7109 17.082C16.6718 17.7852 17.7499 18.1367 18.9452 18.1367C20.1405 18.1367 21.2187 17.7852 22.1796 17.082L23.4452 16.168C23.7734 15.9336 24.1249 15.8398 24.4999 15.8867C24.8749 15.957 25.1796 16.1445 25.414 16.4492C25.6484 16.7773 25.7304 17.1289 25.6601 17.5039C25.6132 17.8789 25.4374 18.1836 25.1327 18.418L23.832 19.3672C23.3632 19.7188 22.8593 20.0117 22.3202 20.2461V21.5117H15.5702V20.2461C15.0312 20.0117 14.5273 19.7188 14.0585 19.3672L12.7929 18.418C12.4648 18.1836 12.2773 17.8789 12.2304 17.5039C12.1601 17.1289 12.2421 16.7773 12.4765 16.4492V16.4844ZM15.6405 22.9531L17.7499 24.8164L16.8359 26.1523L17.6796 26.9961C17.9609 27.2773 18.1015 27.6055 18.1015 27.9805C18.1015 28.3555 17.9609 28.6836 17.6796 28.9648C17.3984 29.2461 17.0702 29.3867 16.6952 29.3867C16.3202 29.3867 15.9921 29.2461 15.7109 28.9648L14.0234 27.2773C13.7655 27.043 13.6249 26.7617 13.6015 26.4336C13.578 26.082 13.6601 25.7656 13.8476 25.4844L15.6054 22.9531H15.6405ZM20.1405 24.8164L22.2851 22.9531L24.0429 25.4844C24.2304 25.7656 24.3124 26.082 24.289 26.4336C24.2656 26.7617 24.1249 27.043 23.8671 27.2773L22.1796 28.9648C21.8984 29.2461 21.5702 29.3867 21.1952 29.3867C20.8202 29.3867 20.4921 29.2461 20.2109 28.9648C19.9296 28.6836 19.789 28.3555 19.789 27.9805C19.789 27.6055 19.9296 27.2773 20.2109 26.9961L21.0546 26.1172L20.1405 24.8164Z" fill="white"/>
</g>
<defs>
<clipPath id="clip0_258_380">
<rect width="15.75" height="18" fill="white" transform="translate(12.125 11)"/>
</clipPath>
</defs>
</svg>
