<svg width="40" height="40" viewBox="0 0 40 40" fill="none" xmlns="http://www.w3.org/2000/svg">
<path d="M0 20C0 8.95431 8.95431 0 20 0C31.0457 0 40 8.95431 40 20C40 31.0457 31.0457 40 20 40C8.95431 40 0 31.0457 0 20Z" fill="white" fill-opacity="0.2"/>
<path d="M19.0156 27.875L12.6875 21.9336C12.5234 21.8164 12.3828 21.6758 12.2656 21.5117H15.3242C16.168 21.4648 16.7656 21.0664 17.1172 20.3164L17.5039 19.4023L19.2266 23.2695C19.3906 23.5742 19.6484 23.7383 20 23.7617C20.3281 23.7617 20.5859 23.6094 20.7734 23.3047L22.25 20.3164L22.3203 20.4219C22.6953 21.125 23.2812 21.4883 24.0781 21.5117H27.7344C27.6172 21.6758 27.4766 21.8281 27.3125 21.9688L20.9844 27.875C20.7031 28.1328 20.375 28.2617 20 28.2617C19.625 28.2617 19.2969 28.1328 19.0156 27.875ZM28.7188 19.8242H24.0781C23.9609 19.8242 23.8789 19.7773 23.832 19.6836L22.9883 18.0312C22.8242 17.75 22.5781 17.5977 22.25 17.5742C21.8984 17.5977 21.6406 17.75 21.4766 18.0312L20.0352 20.9492L18.2422 16.9414C18.0781 16.6133 17.8203 16.4492 17.4688 16.4492C17.0938 16.4727 16.8359 16.6484 16.6953 16.9766L15.5703 19.6484C15.5234 19.7656 15.4414 19.8242 15.3242 19.8242H11.5625C11.4688 19.8242 11.3867 19.8359 11.3164 19.8594C11.1055 19.2969 11 18.7109 11 18.1016V17.8906C11.0234 16.625 11.4219 15.5469 12.1953 14.6562C12.9688 13.7422 13.9648 13.168 15.1836 12.9336C16.0039 12.8164 16.8008 12.875 17.5742 13.1094C18.3242 13.3438 18.9922 13.7539 19.5781 14.3398L20 14.7617L20.4219 14.3398C21.0078 13.7539 21.6758 13.3438 22.4258 13.1094C23.1992 12.875 23.9961 12.8164 24.8164 12.9336C26.0352 13.168 27.0312 13.7422 27.8047 14.6562C28.5781 15.5469 28.9766 16.625 29 17.8906V18.1016C29 18.6875 28.9062 19.2617 28.7188 19.8242Z" fill="white"/>
</svg>
