<svg width="40" height="40" viewBox="0 0 40 40" fill="none" xmlns="http://www.w3.org/2000/svg">
<path d="M0 20C0 8.95431 8.95431 0 20 0C31.0457 0 40 8.95431 40 20C40 31.0457 31.0457 40 20 40C8.95431 40 0 31.0457 0 20Z" fill="white" fill-opacity="0.2"/>
<path d="M13.25 18.6992C13.2266 18.9805 13.4258 19.332 13.8477 19.7539C15.5117 18.8867 17.5625 18.4414 20 18.418C22.4375 18.4414 24.4883 18.8867 26.1523 19.7539C26.5742 19.332 26.7734 18.9805 26.75 18.6992C26.75 18.4883 26.6328 18.2188 26.3984 17.8906C26.1406 17.5859 25.6953 17.2578 25.0625 16.9062C23.7734 16.2734 22.0859 15.9336 20 15.8867C17.9141 15.9336 16.2266 16.2734 14.9375 16.9062C14.3047 17.2578 13.8594 17.5859 13.6016 17.8906C13.3672 18.2188 13.25 18.4883 13.25 18.6992ZM20 20.1055C18.3359 20.1289 16.8945 20.3633 15.6758 20.8086C16.8711 21.2539 18.3125 21.4883 20 21.5117C21.6875 21.4883 23.1289 21.2539 24.3242 20.8086C23.1055 20.3633 21.6641 20.1289 20 20.1055ZM11 18.6992C11.0234 17.832 11.3164 17.082 11.8789 16.4492C12.4414 15.8164 13.1211 15.3008 13.918 14.9023C15.6055 14.082 17.6328 13.6602 20 13.6367C22.3672 13.6602 24.3945 14.082 26.082 14.9023C26.8789 15.3008 27.5586 15.8164 28.1211 16.4492C28.6836 17.082 28.9766 17.832 29 18.6992V22.0742C28.9766 22.9414 28.6836 23.6914 28.1211 24.3242C27.5586 24.957 26.8789 25.4727 26.082 25.8711C24.3945 26.6914 22.3672 27.1133 20 27.1367C17.6328 27.1133 15.6055 26.6914 13.918 25.8711C13.1211 25.4727 12.4414 24.957 11.8789 24.3242C11.3164 23.6914 11.0234 22.9414 11 22.0742V18.6992Z" fill="white"/>
</svg>
