<svg width="40" height="40" viewBox="0 0 40 40" fill="none" xmlns="http://www.w3.org/2000/svg">
<path d="M0 20C0 8.95431 8.95431 0 20 0C31.0457 0 40 8.95431 40 20C40 31.0457 31.0457 40 20 40C8.95431 40 0 31.0457 0 20Z" fill="white" fill-opacity="0.2"/>
<path d="M12.6875 21.9336L19.0156 27.875C19.2969 28.1328 19.625 28.2617 20 28.2617C20.375 28.2617 20.7031 28.1328 20.9844 27.875L27.3125 21.9336C28.4141 20.9023 28.9766 19.625 29 18.1016V17.8906C28.9766 16.625 28.5781 15.5469 27.8047 14.6562C27.0312 13.7422 26.0352 13.168 24.8164 12.9336C23.9961 12.8164 23.1992 12.875 22.4258 13.1094C21.6758 13.3438 21.0078 13.7539 20.4219 14.3398L20 14.7617L19.5781 14.3398C18.9922 13.7539 18.3242 13.3438 17.5742 13.1094C16.8008 12.875 16.0039 12.8164 15.1836 12.9336C13.9648 13.168 12.9688 13.7422 12.1953 14.6562C11.4219 15.5469 11.0234 16.625 11 17.8906V18.1016C11.0234 19.625 11.5859 20.9023 12.6875 21.9336Z" fill="white"/>
</svg>
