<?xml version="1.0" encoding="utf-8"?>
<svg xmlns="http://www.w3.org/2000/svg" width="73" height="48" viewBox="0 0 73 48">
    <g id="Group_2195" data-name="Group 2195" transform="translate(-94.193 -117.37)">
        <g id="Group_1750" data-name="Group 1750" transform="translate(94.126 117.37)">
            <rect id="Rectangle_2085" width="73" height="48" fill="#fff" data-name="Rectangle 2085" rx="6" transform="translate(.067)"/>
            <g id="Group_2200" data-name="Group 2200" transform="translate(-46.914 -337.411)">
                <path id="Path_5709" d="M721.511 355.3c-.041.17-.08.34-.123.509a3.26 3.26 0 0 1-3.416 2.5 6.62 6.62 0 0 1-1.911-.318 1.958 1.958 0 0 0-.715.045c-.318.028-.635.081-.952.082q-4.475.01-8.951 0h-.326l.212-1.4h3.747c-.023.028 0 .016 0 0-.016-.917-.026-1.834-.056-2.751a1.523 1.523 0 0 0-.146-.506 1.323 1.323 0 0 0-1.313-.884h-1.792c.066-.462.122-.886.192-1.307a.2.2 0 0 1 .144-.127 20.881 20.881 0 0 1 2.521.083 2.837 2.837 0 0 1 2.351 2.488 11.68 11.68 0 0 1 .1 1.484c.016.478 0 .958 0 1.455.089.007.162.017.235.017 1.079 0 2.158-.006 3.236.006a.28.28 0 0 0 .329-.284 3.478 3.478 0 0 0 .018-.4v-2.705a1.824 1.824 0 0 1 1.434-1.97c.4-.124.818-.18 1.229-.267h.86a1.623 1.623 0 0 0 .193.05 3.173 3.173 0 0 1 2.742 2.4c.057.209.1.422.151.634zm-4.758-2.3c.021.264.053.487.054.711.006.85.01 1.7 0 2.551 0 .209.071.286.263.3.336.022.67.067 1.006.073a1.3 1.3 0 0 0 1.4-1.031 3.6 3.6 0 0 0 .006-1.921 1.1 1.1 0 0 0-.7-.84 2.919 2.919 0 0 0-2.028.151z" data-name="Path 5709" transform="translate(-607.35)"/>
                <path id="Path_5710" d="M491.568 352.516l-.217 1.42h-4.093a4.364 4.364 0 0 0-.53.024.791.791 0 0 0-.767.888.814.814 0 0 0 .832.838c.64.018 1.281 0 1.922.013a4.55 4.55 0 0 1 .852.087 2.1 2.1 0 0 1 1.718 2.161 3.667 3.667 0 0 1-.1.825 1.926 1.926 0 0 1-1.672 1.448 6.741 6.741 0 0 1-1.279.124c-2.807.006-5.614.012-8.421-.015a2.882 2.882 0 0 1-3.008-2.9 7.66 7.66 0 0 1 .15-2.561 2.976 2.976 0 0 1 2.932-2.265c.884-.016 1.768 0 2.671 0l-.212 1.445h-1.01c-.329 0-.658-.006-.986.007a1.333 1.333 0 0 0-1.262.856 2.864 2.864 0 0 0-.223.976 10.1 10.1 0 0 0 .064 1.836 1.288 1.288 0 0 0 1.283 1.151c.823.05 1.651.036 2.476.039q2.719.01 5.437.007a2.194 2.194 0 0 0 .4-.028.965.965 0 0 0-.169-1.919c-.792-.014-1.585 0-2.376-.037a1.946 1.946 0 0 1-1.862-1.38 2.249 2.249 0 0 1 .653-2.438 3.021 3.021 0 0 1 1.843-.607c1.618-.029 3.237-.016 4.855-.019a.535.535 0 0 1 .099.024z" data-name="Path 5710" transform="translate(-394.506 -1.346)"/>
                <g id="Group_2199" data-name="Group 2199" transform="translate(82.268 361.178)">
                    <path id="Path_5711" d="M861.359 551.862c-.629-.114-1.256-.238-1.888-.335a1.694 1.694 0 0 0-.545.05 5.186 5.186 0 0 1-2.3.03 1.83 1.83 0 0 1-1.465-1.817 1.756 1.756 0 0 1 1.347-1.919 9.708 9.708 0 0 1 1.715-.247c.391-.036.789-.007 1.179-.007.189-.8-.18-1.3-.977-1.316a7.4 7.4 0 0 0-2.544.466c-.078.027-.158.049-.261.081l-.21-1.422a8.181 8.181 0 0 1 4.161-.542 1.986 1.986 0 0 1 1.747 1.875 1.906 1.906 0 0 0 .045.194zm-2.659-3.084l-.006-.031a8.327 8.327 0 0 0-1.087.163.738.738 0 0 0-.5.839.653.653 0 0 0 .6.648 4.313 4.313 0 0 0 1.143-.063c.626-.112.626-.133.62-.775 0-.248.062-.577-.068-.721-.117-.127-.46-.048-.702-.06z" data-name="Path 5711" transform="translate(-829.466 -541.761)"/>
                    <path id="Path_5712" d="M486.674 551.707h-1.984v-.307-3.794a3.415 3.415 0 0 0-.016-.4.73.73 0 0 0-.667-.683 2.2 2.2 0 0 0-1.248.214c.013.557.033 1.082.036 1.607.006 1.029 0 2.057 0 3.086v.284h-1.979v-.291c0-1.264-.012-2.529 0-3.794.012-.984-.429-1.24-1.351-1.078-.553.1-.55.111-.55.664v4.49h-2.013v-.3-4.906c0-.829.211-1.109 1.015-1.329a6.509 6.509 0 0 1 3.023-.2 3.211 3.211 0 0 1 .8.3.384.384 0 0 0 .368.024 4.716 4.716 0 0 1 3.015-.283 1.836 1.836 0 0 1 1.51 1.792c.047 1.3.031 2.6.04 3.893.003.324.001.659.001 1.011z" data-name="Path 5712" transform="translate(-476.906 -541.827)"/>
                    <path id="Path_5713" d="M748.837 503.55v-.3-2.477c0-.132.017-.223.173-.248l1.828-.307V508.642c0 .777-.17 1.014-.911 1.242a6.62 6.62 0 0 1-2.948.221 2.906 2.906 0 0 1-2.515-2.808 5.766 5.766 0 0 1 .14-1.931 2.571 2.571 0 0 1 2.566-2.062 9.015 9.015 0 0 1 1.346.158 2.886 2.886 0 0 1 .321.088zm0 3.233v-.983c0-.9 0-.9-.913-.984a1.225 1.225 0 0 0-1.4.962 3.649 3.649 0 0 0 0 1.9 1.292 1.292 0 0 0 1.389 1.038c.217 0 .433-.052.651-.069s.281-.1.273-.319c-.012-.518 0-1.028 0-1.545z" data-name="Path 5713" transform="translate(-726.268 -500.222)"/>
                    <path id="Path_5714" d="M641.318 547.617c.065-1.012-.247-1.345-1.212-1.318a7.752 7.752 0 0 0-2.32.462c-.078.027-.158.051-.274.088-.065-.452-.13-.89-.184-1.329a.18.18 0 0 1 .1-.134 9.318 9.318 0 0 1 3.338-.594 4.418 4.418 0 0 1 .528.057 2.061 2.061 0 0 1 1.931 2.272c.012 1.517 0 3.035 0 4.552 0 .05-.005.1-.009.178-.222-.038-.437-.06-.644-.112a5.25 5.25 0 0 0-2.44-.07 3.338 3.338 0 0 1-1.8-.119 1.957 1.957 0 0 1-.129-3.629 4.616 4.616 0 0 1 1.707-.3c.47-.013.932-.004 1.408-.004zm.041 1.208c-.578 0-1.109-.035-1.634.01a.783.783 0 0 0-.729.873.734.734 0 0 0 .812.724 10.911 10.911 0 0 0 1.437-.233.182.182 0 0 0 .109-.135c.008-.411.005-.823.005-1.239z" data-name="Path 5714" transform="translate(-626.173 -541.758)"/>
                </g>
                <path id="Rectangle_3070" fill="#008bcf" d="M0 0H25.646V8.498H0z" data-name="Rectangle 3070" transform="translate(53.512 351.047)"/>
                <path id="Rectangle_3071" fill="#80aa2c" d="M0 0H25.646V8.498H0z" data-name="Rectangle 3071" transform="translate(53.512 362.631)"/>
            </g>
        </g>
    </g>
</svg>