<svg preserveAspectRatio="none" width="100%" height="100%" overflow="visible" style="display: block;" viewBox="0 0 34 34" fill="none" xmlns="http://www.w3.org/2000/svg">
<g id="cib:apple-pay" clip-path="url(#clip0_22_4656)">
<path id="Vector" d="M6.21456 11.7374C5.81506 12.2134 5.17862 12.5906 4.54325 12.5354C4.45931 11.8936 4.77594 11.2062 5.14144 10.7801C5.53988 10.2946 6.23687 9.94606 6.80212 9.91737C6.86906 10.5878 6.60662 11.2466 6.21456 11.7374ZM6.79575 12.6618C5.87244 12.6055 5.07981 13.192 4.64206 13.192C4.19475 13.192 3.52431 12.6894 2.79438 12.7064C1.84769 12.7181 0.962625 13.2589 0.481313 14.1291C-0.520625 15.8599 0.221 18.4227 1.18362 19.8337C1.65431 20.5307 2.21744 21.2946 2.96013 21.2734C3.66244 21.2447 3.94506 20.8091 4.79188 20.8091C5.64931 20.8091 5.89262 21.2734 6.64062 21.2564C7.40881 21.2447 7.89544 20.5594 8.36612 19.8624C8.90269 19.0708 9.12369 18.2952 9.13537 18.2569C9.12369 18.2399 7.64681 17.6704 7.63619 15.9545C7.6245 14.5148 8.7975 13.8295 8.84744 13.7902C8.18869 12.7946 7.1485 12.6894 6.79469 12.6629L6.79575 12.6618ZM12.1252 10.7132V21.1841H13.7349V17.6046H15.9609C17.9913 17.6046 19.4193 16.1936 19.4193 14.1568C19.4193 12.1157 18.02 10.7142 16.0161 10.7142L12.1252 10.7132ZM13.7349 12.0859H15.589C16.983 12.0859 17.7809 12.8382 17.7809 14.161C17.7809 15.4838 16.983 16.2424 15.5784 16.2424H13.7349V12.0859ZM22.3508 21.2617C23.3633 21.2617 24.2983 20.7474 24.7254 19.9272H24.7594V21.1841H26.2469V15.9704C26.2469 14.4659 25.0527 13.4874 23.2093 13.4874C21.505 13.4874 20.2428 14.4776 20.1992 15.8334H21.6431C21.7653 15.1863 22.3518 14.7656 23.1657 14.7656C24.1506 14.7656 24.6989 15.2299 24.6989 16.0831V16.6579L22.6961 16.7801C20.825 16.8959 19.8178 17.6651 19.8178 19.0103C19.8178 20.366 20.859 21.2627 22.3518 21.2627L22.3508 21.2617ZM22.7885 20.0217C21.93 20.0217 21.3828 19.6063 21.3828 18.9709C21.3828 18.3122 21.9088 17.9244 22.9096 17.8628L24.6978 17.7523V18.3441C24.6978 19.3247 23.8733 20.0217 22.7821 20.0217H22.7885ZM28.2338 24.0338C29.7989 24.0338 30.5363 23.4249 31.178 21.5932L34 13.5915H32.368L30.4757 19.7721H30.4417L28.5494 13.5915H26.8674L29.5906 21.2118L29.4461 21.6761C29.1964 22.457 28.7991 22.7598 28.0904 22.7598C27.9629 22.7598 27.7196 22.7439 27.6197 22.7332V23.9902C27.7132 24.0168 28.1127 24.0284 28.2285 24.0284L28.2338 24.0338Z" fill="var(--fill-0, black)"/>
</g>
<defs>
<clipPath id="clip0_22_4656">
<rect width="34" height="34" fill="white"/>
</clipPath>
</defs>
</svg>
