<svg preserveAspectRatio="none" width="100%" height="100%" overflow="visible" style="display: block;" viewBox="0 0 23 23" fill="none" xmlns="http://www.w3.org/2000/svg">
<g id="Group">
<path id="Vector" d="M13.3972 8.40119C13.2644 8.02786 13.0195 7.70468 12.696 7.47588C12.3725 7.24708 11.9862 7.12385 11.59 7.12304H10.1065C9.68328 7.12083 9.27426 7.27563 8.95855 7.5575C8.64283 7.83938 8.44285 8.22831 8.39728 8.64909C8.35171 9.06986 8.46378 9.49259 8.71182 9.83552C8.95987 10.1785 9.32626 10.4172 9.74015 10.5057L11.9991 10.9985C12.461 11.0997 12.8692 11.3679 13.1453 11.7517C13.4215 12.1355 13.5461 12.6079 13.4951 13.078C13.4442 13.548 13.2213 13.9827 12.8694 14.2985C12.5174 14.6142 12.0612 14.7888 11.5884 14.7886H10.3119C9.47729 14.7886 8.76758 14.2563 8.50472 13.5121M10.9509 7.12304V5.20583M10.9509 16.7058V14.7903M2.96008 21.8595V17.7523H7.06722" stroke="var(--stroke-0, black)" stroke-linecap="round" stroke-linejoin="round"/>
<path id="Vector_2" d="M21.6722 9.21769C22.1084 11.5427 21.7602 13.9467 20.6823 16.0524C19.6044 18.1581 17.8578 19.8462 15.7167 20.8519C13.5756 21.8576 11.1611 22.1239 8.85229 21.609C6.54347 21.0941 4.47097 19.8271 2.96008 18.007M0.68308 13.1474C0.246942 10.8224 0.595148 8.41841 1.67305 6.31272C2.75095 4.20703 4.49752 2.51885 6.63863 1.51314C8.77974 0.507441 11.1942 0.241148 13.503 0.756061C15.8118 1.27097 17.8843 2.53794 19.3952 4.35811" stroke="var(--stroke-0, black)" stroke-linecap="round" stroke-linejoin="round"/>
<path id="Vector_3" d="M19.3952 0.507258V4.6144H15.2881" stroke="var(--stroke-0, black)" stroke-linecap="round" stroke-linejoin="round"/>
</g>
</svg>
