<svg width="31" height="24" viewBox="0 0 31 24" fill="none" xmlns="http://www.w3.org/2000/svg">
<g clip-path="url(#clip0_236_5792)">
<path d="M6.17182 8.01562C5.79682 8.45312 5.29682 8.67188 4.67182 8.67188C4.67182 8.07812 4.85932 7.57812 5.23432 7.17188C5.64057 6.70312 6.12495 6.45312 6.68745 6.42188C6.7187 7.01562 6.54682 7.53125 6.17182 7.96875V8.01562ZM6.68745 8.8125C6.18745 8.8125 5.74995 8.90625 5.37495 9.09375C5.12495 9.1875 4.92182 9.25 4.76557 9.28125C4.60932 9.25 4.4062 9.1875 4.1562 9.09375C3.8437 8.9375 3.51557 8.84375 3.17182 8.8125C2.26557 8.875 1.57807 9.29688 1.10932 10.0781C0.703074 10.8594 0.593699 11.7188 0.781199 12.6562C0.968699 13.5938 1.2812 14.3906 1.7187 15.0469C1.93745 15.3906 2.17182 15.6875 2.42182 15.9375C2.67182 16.1875 2.9687 16.3125 3.31245 16.3125C3.5937 16.2812 3.82807 16.2188 4.01557 16.125C4.23432 16 4.5312 15.9219 4.9062 15.8906C5.2812 15.9219 5.57807 16 5.79682 16.125C5.98432 16.25 6.23432 16.3125 6.54682 16.3125C6.89057 16.2812 7.17182 16.1562 7.39057 15.9375C7.64057 15.6875 7.87495 15.4062 8.0937 15.0938C8.31245 14.7188 8.4687 14.4062 8.56245 14.1562C8.68745 13.875 8.74995 13.7188 8.74995 13.6875C8.62495 13.6562 8.37495 13.4844 7.99995 13.1719C7.6562 12.8594 7.4687 12.3594 7.43745 11.6719C7.4687 11.0781 7.62495 10.6406 7.9062 10.3594C8.1562 10.0469 8.3437 9.85938 8.4687 9.79688C8.4687 9.79688 8.48432 9.79688 8.51557 9.79688C8.20307 9.35938 7.85932 9.07812 7.48432 8.95312C7.14057 8.85938 6.87495 8.8125 6.68745 8.8125ZM11.3749 7.07812V16.2188H12.7812V13.125H14.7499C15.6874 13.0938 16.4218 12.8125 16.9531 12.2812C17.5156 11.7188 17.7968 10.9844 17.7968 10.0781C17.7968 9.20312 17.5312 8.48438 16.9999 7.92188C16.4374 7.39062 15.7031 7.10938 14.7968 7.07812H11.3749ZM12.7812 8.29688H14.4218C15.7031 8.32812 16.3593 8.9375 16.3906 10.125C16.3593 11.2812 15.7031 11.875 14.4218 11.9062H12.7812V8.29688ZM20.4218 16.3125C21.3593 16.2812 22.0468 15.8906 22.4843 15.1406H22.5312V16.2188H23.8437V11.6719C23.8437 11.0156 23.5937 10.5 23.0937 10.125C22.6249 9.71875 21.9843 9.51562 21.1718 9.51562C20.3906 9.51562 19.7656 9.70312 19.2968 10.0781C18.7968 10.4531 18.5312 10.9531 18.4999 11.5781H19.7656C19.9218 10.9844 20.3749 10.6719 21.1249 10.6406C21.9999 10.6406 22.4531 11.0156 22.4843 11.7656V12.2812L20.7031 12.375C19.0468 12.5 18.2031 13.1562 18.1718 14.3438C18.1718 14.9375 18.3749 15.4062 18.7812 15.75C19.1874 16.125 19.7343 16.3125 20.4218 16.3125ZM20.7968 15.2344C20.0156 15.2031 19.5937 14.8906 19.5312 14.2969C19.5624 13.7344 20.0156 13.4219 20.8906 13.3594L22.4843 13.2656V13.7812C22.4843 14.1875 22.3281 14.5312 22.0156 14.8125C21.7031 15.0938 21.2968 15.2344 20.7968 15.2344ZM25.5781 18.7031C26.2656 18.7344 26.8124 18.5781 27.2187 18.2344C27.5937 17.9219 27.9218 17.375 28.2031 16.5938L30.6874 9.60938H29.2343L27.5937 15H27.5468L25.8593 9.60938H24.4062L26.7968 16.2656L26.6562 16.6875C26.4687 17.3438 26.0781 17.6562 25.4843 17.625C25.3281 17.625 25.1874 17.6094 25.0624 17.5781V18.7031C25.2187 18.7031 25.3906 18.7031 25.5781 18.7031Z" fill="#D1D5DB"/>
</g>
<defs>
<clipPath id="clip0_236_5792">
<rect width="30" height="24" fill="white" transform="translate(0.5)"/>
</clipPath>
</defs>
</svg>
