<svg width="28" height="22" viewBox="0 0 28 22" fill="none" xmlns="http://www.w3.org/2000/svg">
<path d="M23.1406 17.7812C23.1094 18.125 22.9375 18.3125 22.625 18.3438C22.2812 18.3125 22.0938 18.125 22.0625 17.7812C22.0938 17.4688 22.2812 17.2969 22.625 17.2656C22.9375 17.2969 23.1094 17.4688 23.1406 17.7812ZM8.5625 17.2656C8.21875 17.2969 8.04688 17.4688 8.04688 17.7812C8.04688 18.125 8.21875 18.3125 8.5625 18.3438C8.875 18.3125 9.04688 18.125 9.07812 17.7812C9.04688 17.4688 8.875 17.2969 8.5625 17.2656ZM14.0938 17.2188C13.8125 17.25 13.6562 17.3906 13.625 17.6406H14.5156C14.4844 17.3594 14.3438 17.2188 14.0938 17.2188ZM19.1094 17.2656C18.7969 17.2969 18.6406 17.4688 18.6406 17.7812C18.6406 18.125 18.7969 18.3125 19.1094 18.3438C19.4531 18.3125 19.6406 18.125 19.6719 17.7812C19.6406 17.4688 19.4531 17.2969 19.1094 17.2656ZM24.0781 18.4844C24.1094 18.4844 24.125 18.5 24.125 18.5312C24.125 18.5312 24.1094 18.5312 24.0781 18.5312C24.0781 18.5312 24.0781 18.5469 24.0781 18.5781C24.0781 18.6094 24.0781 18.625 24.0781 18.625C24.0469 18.625 24.0312 18.625 24.0312 18.625C24 18.6562 23.9844 18.6562 23.9844 18.625C23.9531 18.6562 23.9375 18.6562 23.9375 18.625C23.9062 18.625 23.8906 18.625 23.8906 18.625C23.8594 18.5938 23.8438 18.5781 23.8438 18.5781C23.8438 18.5469 23.8438 18.5312 23.8438 18.5312C23.8438 18.5 23.8438 18.4844 23.8438 18.4844C23.8438 18.4531 23.8594 18.4375 23.8906 18.4375C23.8906 18.4062 23.8906 18.3906 23.8906 18.3906C23.8906 18.3906 23.9062 18.3906 23.9375 18.3906C23.9375 18.3906 23.9531 18.3906 23.9844 18.3906C23.9844 18.3906 24 18.3906 24.0312 18.3906C24.0625 18.3906 24.0781 18.4062 24.0781 18.4375C24.0781 18.4375 24.0781 18.4531 24.0781 18.4844ZM23.9844 18.5312C23.9844 18.5312 24 18.5312 24.0312 18.5312C24.0312 18.5 24.0312 18.4844 24.0312 18.4844C24.0312 18.4844 24.0312 18.4688 24.0312 18.4375C24 18.4375 23.9844 18.4375 23.9844 18.4375H23.8906V18.5781H23.9375V18.5312L23.9844 18.5781H24.0312L23.9844 18.5312ZM27.5 2.35938V18.8594C27.4688 19.4844 27.25 20.0156 26.8438 20.4531C26.4062 20.8594 25.875 21.0781 25.25 21.1094H2.75C2.125 21.0781 1.59375 20.8594 1.15625 20.4531C0.75 20.0156 0.53125 19.4844 0.5 18.8594V2.35938C0.53125 1.73438 0.75 1.20312 1.15625 0.765625C1.59375 0.359375 2.125 0.140625 2.75 0.109375H25.25C25.875 0.140625 26.4062 0.359375 26.8438 0.765625C27.25 1.20312 27.4688 1.73438 27.5 2.35938ZM3.5 8.92188C3.53125 10.7344 4.17188 12.2656 5.42188 13.5156C6.64062 14.7344 8.17188 15.3594 10.0156 15.3906C11.2969 15.3906 12.4844 15.0312 13.5781 14.3125C11.8594 12.8125 11.0156 11.0156 11.0469 8.92188C11.0469 6.79688 11.8906 5 13.5781 3.53125C12.4844 2.8125 11.2969 2.4375 10.0156 2.40625C8.17188 2.46875 6.64062 3.10938 5.42188 4.32812C4.17188 5.54688 3.53125 7.07812 3.5 8.92188ZM14 13.9844C15.6562 12.6094 16.4844 10.9219 16.4844 8.92188C16.4844 6.92188 15.6562 5.21875 14 3.8125C12.3438 5.21875 11.5156 6.92188 11.5156 8.92188C11.5156 10.9219 12.3438 12.6094 14 13.9844ZM7.34375 17.5938C7.3125 17.1562 7.07812 16.9219 6.64062 16.8906C6.42188 16.8594 6.21875 16.9688 6.03125 17.2188C5.9375 17 5.75 16.8906 5.46875 16.8906C5.28125 16.8906 5.10938 16.9688 4.95312 17.125V16.9375H4.57812V18.6719H4.95312C4.95312 18.5156 4.95312 18.375 4.95312 18.25C4.85938 17.5938 5 17.2656 5.375 17.2656C5.71875 17.2656 5.85938 17.5938 5.79688 18.25C5.79688 18.375 5.79688 18.5156 5.79688 18.6719H6.17188C6.14062 18.5156 6.125 18.375 6.125 18.25C6.03125 17.5938 6.1875 17.2656 6.59375 17.2656C6.90625 17.2344 7.03125 17.5625 6.96875 18.25C6.96875 18.375 6.96875 18.5156 6.96875 18.6719H7.34375V17.5938ZM9.45312 16.9375H9.07812V17.125C8.95312 16.9688 8.76562 16.8906 8.51562 16.8906C7.98438 16.9219 7.70312 17.2188 7.67188 17.7812C7.70312 18.3438 7.98438 18.6562 8.51562 18.7188C8.76562 18.7188 8.95312 18.625 9.07812 18.4375V18.6719H9.45312V16.9375ZM11.3281 18.1562C11.2656 17.7812 11.0312 17.5938 10.625 17.5938C10.4062 17.5938 10.2812 17.5312 10.25 17.4062C10.2812 17.2812 10.3906 17.2188 10.5781 17.2188C10.7656 17.2188 10.9531 17.2656 11.1406 17.3594L11.2812 17.0781C11.0312 16.9219 10.7344 16.8594 10.3906 16.8906C10.0781 16.9531 9.90625 17.1406 9.875 17.4531C9.9375 17.7969 10.1562 17.9688 10.5312 17.9688C10.7812 17.9688 10.9219 18.0312 10.9531 18.1562C10.9219 18.3125 10.7969 18.3906 10.5781 18.3906C10.3594 18.3906 10.1562 18.3281 9.96875 18.2031L9.82812 18.4844C10.1094 18.6719 10.4219 18.7344 10.7656 18.6719C11.1094 18.6406 11.2969 18.4688 11.3281 18.1562ZM13.0156 18.5781L12.875 18.25C12.7812 18.3125 12.6719 18.3438 12.5469 18.3438C12.4219 18.3438 12.3438 18.25 12.3125 18.0625V17.2656H12.9219V16.9375H12.3125V16.4219H11.9375V16.9375H11.5625V17.2656H11.9375V18.0625C11.9688 18.4688 12.1094 18.6719 12.3594 18.6719C12.6406 18.7031 12.8438 18.6719 12.9688 18.5781H13.0156ZM13.625 17.9688H14.8906C14.8594 17.2188 14.5938 16.8594 14.0938 16.8906C13.5625 16.9219 13.2812 17.2188 13.25 17.7812C13.2812 18.25 13.4688 18.5469 13.8125 18.6719C14.1875 18.7656 14.5156 18.6875 14.7969 18.4375L14.6562 18.1562C14.4375 18.3125 14.2344 18.375 14.0469 18.3438C13.8281 18.3125 13.6875 18.1875 13.625 17.9688ZM16.3906 16.9375C16.1406 16.8125 15.9062 16.875 15.6875 17.125V16.9375H15.2656V18.6719H15.6875V17.6875C15.6875 17.4375 15.7656 17.2969 15.9219 17.2656C16.0781 17.2344 16.1875 17.25 16.25 17.3125L16.3906 16.9375ZM16.9062 17.7812C16.9062 17.5312 17 17.3594 17.1875 17.2656C17.4062 17.2031 17.625 17.25 17.8438 17.4062L18.0312 17.0781C17.7188 16.8906 17.3906 16.8438 17.0469 16.9375C16.7031 17.0625 16.5156 17.3438 16.4844 17.7812C16.5156 18.25 16.7188 18.5469 17.0938 18.6719C17.4375 18.7656 17.75 18.7031 18.0312 18.4844L17.8438 18.2031C17.625 18.3594 17.4062 18.3906 17.1875 18.2969C17 18.2344 16.9062 18.0625 16.9062 17.7812ZM20 16.9375H19.625V17.125C19.4062 16.875 19.125 16.8125 18.7812 16.9375C18.4375 17.0625 18.25 17.3438 18.2188 17.7812C18.25 18.25 18.4375 18.5469 18.7812 18.6719C19.125 18.7656 19.4062 18.6875 19.625 18.4375V18.6719H20V16.9375ZM21.5938 16.9375C21.5312 16.9062 21.4219 16.8906 21.2656 16.8906C21.1094 16.8906 20.9844 16.9688 20.8906 17.125V16.9375H20.5156V18.6719H20.8906V17.6875C20.8906 17.4375 20.9688 17.2969 21.125 17.2656C21.25 17.2344 21.375 17.25 21.5 17.3125L21.5938 16.9375ZM23.4688 16.2344H23.0938V17.125C22.875 16.875 22.5938 16.8125 22.25 16.9375C21.9375 17.0625 21.75 17.3438 21.6875 17.7812C21.75 18.25 21.9531 18.5469 22.2969 18.6719C22.6406 18.7656 22.9062 18.6875 23.0938 18.4375V18.6719H23.4688V16.2344ZM23.8438 12.7188V12.9531H23.8906V12.7188H23.9844V12.6719H23.75V12.7188H23.8438ZM24.125 18.5312C24.125 18.5 24.125 18.4688 24.125 18.4375C24.125 18.4375 24.1094 18.4219 24.0781 18.3906C24.0469 18.3906 24.0312 18.375 24.0312 18.3438C24.0312 18.3438 24.0156 18.3438 23.9844 18.3438C23.9531 18.3438 23.9375 18.3438 23.9375 18.3438C23.9375 18.3438 23.9219 18.3438 23.8906 18.3438C23.8906 18.375 23.875 18.3906 23.8438 18.3906C23.8125 18.4219 23.7969 18.4375 23.7969 18.4375C23.7969 18.4688 23.7969 18.5 23.7969 18.5312C23.7969 18.5312 23.7969 18.5469 23.7969 18.5781C23.7969 18.6094 23.8125 18.625 23.8438 18.625C23.8438 18.6562 23.8594 18.6719 23.8906 18.6719C23.9219 18.6719 23.9531 18.6719 23.9844 18.6719C23.9844 18.6719 24 18.6719 24.0312 18.6719C24.0312 18.6719 24.0469 18.6719 24.0781 18.6719C24.0781 18.6719 24.0781 18.6562 24.0781 18.625C24.1094 18.625 24.125 18.625 24.125 18.625C24.125 18.5938 24.125 18.5781 24.125 18.5781C24.125 18.5469 24.125 18.5312 24.125 18.5312ZM24.3125 12.6719H24.2188L24.1719 12.8594L24.0781 12.6719H24.0312V12.9062V12.7188L24.125 12.9062H24.1719L24.2656 12.7188V12.9062H24.3125V12.6719ZM24.5 8.92188C24.4688 7.07812 23.8281 5.54688 22.5781 4.32812C21.3594 3.10938 19.8438 2.46875 18.0312 2.40625C16.7188 2.4375 15.5156 2.79688 14.4219 3.48438C15.5469 4.45312 16.2969 5.59375 16.6719 6.90625C17.0781 8.25 17.0938 9.57812 16.7188 10.8906C16.3438 12.2031 15.5781 13.3438 14.4219 14.3125C15.5156 15.0312 16.7188 15.3906 18.0312 15.3906C19.8438 15.3594 21.3594 14.7344 22.5781 13.5156C23.8281 12.2656 24.4688 10.7344 24.5 8.92188Z" fill="#D1D5DB"/>
</svg>
