<svg width="28" height="22" viewBox="0 0 28 22" fill="none" xmlns="http://www.w3.org/2000/svg">
<path d="M9.21875 10.6562C9.1875 11.2812 8.84375 11.625 8.1875 11.6875C7.71875 11.6875 7.46875 11.4531 7.4375 10.9844C7.5 10.3594 7.84375 10.0156 8.46875 9.95312C8.9375 9.95312 9.1875 10.1875 9.21875 10.6562ZM4.29688 8.40625H4.0625C3.96875 8.40625 3.92188 8.4375 3.92188 8.5L3.6875 9.76562H4.10938C4.64062 9.82812 4.96875 9.60938 5.09375 9.10938C5.125 8.79688 5.0625 8.59375 4.90625 8.5C4.75 8.40625 4.54688 8.375 4.29688 8.40625ZM17.6094 8.40625H17.375C17.2812 8.40625 17.2344 8.4375 17.2344 8.5L17.0469 9.76562H17.4219C18.0469 9.82812 18.3906 9.54688 18.4531 8.92188C18.4219 8.67188 18.3281 8.51562 18.1719 8.45312C17.9844 8.39062 17.7812 8.375 17.5625 8.40625H17.6094ZM27.5 2.3125V18.8125C27.4688 19.4375 27.25 19.9688 26.8438 20.4062C26.4062 20.8125 25.875 21.0312 25.25 21.0625H2.75C2.125 21.0312 1.59375 20.8125 1.15625 20.4062C0.75 19.9688 0.53125 19.4375 0.5 18.8125V2.3125C0.53125 1.6875 0.75 1.15625 1.15625 0.71875C1.59375 0.3125 2.125 0.09375 2.75 0.0625H25.25C25.875 0.09375 26.4062 0.3125 26.8438 0.71875C27.25 1.15625 27.4688 1.6875 27.5 2.3125ZM6.5 8.64062C6.5 8.17188 6.34375 7.84375 6.03125 7.65625C5.71875 7.4375 5.34375 7.32812 4.90625 7.32812H3.03125C2.875 7.35938 2.78125 7.4375 2.75 7.5625L2 12.3438C2 12.4688 2.04688 12.5312 2.14062 12.5312H3.03125C3.1875 12.5 3.28125 12.4219 3.3125 12.2969L3.5 11.0312C3.625 10.8125 3.85938 10.7344 4.20312 10.7969C4.26562 10.7969 4.3125 10.7969 4.34375 10.7969C5.75 10.7656 6.46875 10.0469 6.5 8.64062ZM10.4844 9.0625H9.59375C9.4375 9.125 9.35938 9.25 9.35938 9.4375C9.07812 9.09375 8.71875 8.9375 8.28125 8.96875C7.6875 9 7.20312 9.21875 6.82812 9.625C6.45312 10.0312 6.25 10.5312 6.21875 11.125C6.28125 12.0625 6.78125 12.5625 7.71875 12.625C8.1875 12.5938 8.60938 12.4062 8.98438 12.0625C8.95312 12.1562 8.9375 12.25 8.9375 12.3438C8.9375 12.4688 8.98438 12.5312 9.07812 12.5312H9.875C10 12.5 10.0938 12.4062 10.1562 12.25L10.625 9.25C10.625 9.15625 10.5781 9.09375 10.4844 9.0625ZM12.3594 13.6562L15.3594 9.34375C15.3594 9.3125 15.3594 9.28125 15.3594 9.25C15.3594 9.15625 15.3125 9.09375 15.2188 9.0625H14.3281C14.2344 9.0625 14.1562 9.10938 14.0938 9.20312L12.875 11.0312L12.3594 9.25C12.2969 9.15625 12.2031 9.09375 12.0781 9.0625H11.2344C11.1406 9.09375 11.0781 9.15625 11.0469 9.25C11.0781 9.28125 11.1562 9.5 11.2812 9.90625C11.4375 10.3125 11.5781 10.7344 11.7031 11.1719C11.8906 11.7031 12.0156 12.0312 12.0781 12.1562C12.0469 12.1562 12.0312 12.1719 12.0312 12.2031C11.9062 12.3594 11.7344 12.6094 11.5156 12.9531C11.2656 13.2969 11.125 13.5312 11.0938 13.6562C11.0938 13.7188 11.1406 13.7656 11.2344 13.7969H12.125C12.2188 13.7656 12.2969 13.7188 12.3594 13.6562ZM19.8125 8.64062C19.8125 8.17188 19.6562 7.84375 19.3438 7.65625C19.0312 7.4375 18.6562 7.32812 18.2188 7.32812H16.3438C16.1875 7.35938 16.0938 7.4375 16.0625 7.5625L15.3125 12.3438C15.3125 12.4688 15.3594 12.5312 15.4531 12.5312H16.4375C16.5312 12.5312 16.5938 12.4844 16.625 12.3906L16.8125 11.0312C16.9375 10.8125 17.1719 10.7344 17.5156 10.7969C17.5781 10.7969 17.625 10.7969 17.6562 10.7969C19.0625 10.7656 19.7812 10.0469 19.8125 8.64062ZM23.7969 9.0625H22.9062C22.75 9.125 22.6719 9.25 22.6719 9.4375C22.4219 9.09375 22.0625 8.9375 21.5938 8.96875C21 9 20.5156 9.21875 20.1406 9.625C19.7656 10.0312 19.5625 10.5312 19.5312 11.125C19.5938 12.0625 20.0938 12.5625 21.0312 12.625C21.5312 12.5938 21.9531 12.4062 22.2969 12.0625C22.2656 12.0625 22.25 12.0781 22.25 12.1094C22.25 12.2031 22.25 12.2812 22.25 12.3438C22.2188 12.4688 22.2656 12.5312 22.3906 12.5312H23.1875C23.3125 12.5 23.4062 12.4062 23.4688 12.25L23.9375 9.25C23.9375 9.15625 23.8906 9.09375 23.7969 9.0625ZM26 7.51562C26 7.42188 25.9531 7.35938 25.8594 7.32812H24.9688C24.9062 7.35938 24.8594 7.40625 24.8281 7.46875L24.0781 12.3438V12.3906C24.0781 12.4844 24.125 12.5312 24.2188 12.5312H25.0156C25.1406 12.5 25.2188 12.4062 25.25 12.25L26 7.51562ZM21.7812 9.95312C21.1562 9.98438 20.8125 10.3281 20.75 10.9844C20.7812 11.4219 21.0469 11.6562 21.5469 11.6875C22.1406 11.625 22.4688 11.2812 22.5312 10.6562C22.5 10.1875 22.25 9.95312 21.7812 9.95312Z" fill="#D1D5DB"/>
</svg>
