<svg width="28" height="22" viewBox="0 0 28 22" fill="none" xmlns="http://www.w3.org/2000/svg">
<path d="M22.5312 9.39062C22.5625 9.45312 22.625 9.76562 22.7188 10.3281C22.8438 10.8594 22.9219 11.25 22.9531 11.5H21.4062C21.5 11.25 21.6406 10.8594 21.8281 10.3281C22.0156 9.82812 22.125 9.54688 22.1562 9.48438C22.1562 9.48438 22.1875 9.40625 22.25 9.25C22.3125 9.09375 22.3594 8.9375 22.3906 8.78125L22.5312 9.39062ZM27.5 2.3125V18.8125C27.4688 19.4375 27.25 19.9688 26.8438 20.4062C26.4062 20.8125 25.875 21.0312 25.25 21.0625H2.75C2.125 21.0312 1.59375 20.8125 1.15625 20.4062C0.75 19.9688 0.53125 19.4375 0.5 18.8125V2.3125C0.53125 1.6875 0.75 1.15625 1.15625 0.71875C1.59375 0.3125 2.125 0.09375 2.75 0.0625H25.25C25.875 0.09375 26.4062 0.3125 26.8438 0.71875C27.25 1.15625 27.4688 1.6875 27.5 2.3125ZM7.67188 14.0781L10.625 6.8125H8.60938L6.78125 11.7812L6.59375 10.7969L5.9375 7.42188C5.78125 6.98438 5.48438 6.78125 5.04688 6.8125H2.04688L2 6.95312C2.75 7.14062 3.40625 7.40625 3.96875 7.75L5.65625 14.0781H7.67188ZM12.0781 14.0781L13.25 6.8125H11.375L10.2031 14.0781H12.0781ZM18.6406 11.7344C18.6406 10.9219 18.1094 10.25 17.0469 9.71875C16.3594 9.4375 16 9.14062 15.9688 8.82812C15.9688 8.45312 16.3281 8.25 17.0469 8.21875C17.6719 8.21875 18.1406 8.3125 18.4531 8.5L18.6406 8.54688L18.875 7C18.5 6.8125 17.9375 6.70312 17.1875 6.67188C16.25 6.67188 15.5 6.89062 14.9375 7.32812C14.3438 7.76562 14.0469 8.35938 14.0469 9.10938C14.0469 9.60938 14.2188 10.0156 14.5625 10.3281C14.9375 10.6406 15.3125 10.8906 15.6875 11.0781C16.375 11.3906 16.7031 11.6875 16.6719 11.9688C16.6406 12.2188 16.5156 12.4062 16.2969 12.5312C16.0781 12.625 15.8281 12.6719 15.5469 12.6719C14.8906 12.6719 14.2969 12.5469 13.7656 12.2969L13.5312 12.1562L13.25 13.7969C13.75 14.0469 14.4531 14.1875 15.3594 14.2188C16.3594 14.1875 17.1562 13.9531 17.75 13.5156C18.3125 13.0781 18.6094 12.4844 18.6406 11.7344ZM25.25 14.0781L23.75 6.8125H22.2969C21.8281 6.78125 21.5 6.98438 21.3125 7.42188L18.5 14.0781H20.4688C20.4688 14.0469 20.5312 13.8906 20.6562 13.6094C20.75 13.3281 20.8125 13.125 20.8438 13H23.2812C23.3125 13.1562 23.3594 13.375 23.4219 13.6562C23.4844 13.9062 23.5156 14.0469 23.5156 14.0781H25.25Z" fill="#D1D5DB"/>
</svg>
