<svg width="28" height="36" viewBox="0 0 28 36" fill="none" xmlns="http://www.w3.org/2000/svg">
<g clip-path="url(#clip0_236_5411)">
<path d="M8.02348 8.80078C8.06254 7.19922 8.76566 5.98828 10.1328 5.16797C11.5391 4.38672 12.9453 4.38672 14.3516 5.16797C15.7188 5.98828 16.4219 7.19922 16.461 8.80078C16.4219 10.4023 15.7188 11.6133 14.3516 12.4336C12.9453 13.2148 11.5391 13.2148 10.1328 12.4336C8.76566 11.6133 8.06254 10.4023 8.02348 8.80078ZM1.46098 12.1406C1.8516 11.5938 2.35941 11.2812 2.98441 11.2031C3.60941 11.0859 4.19535 11.2227 4.74222 11.6133L6.8516 13.1367C8.45316 14.3086 10.25 14.8945 12.2422 14.8945C14.2344 14.8945 16.0313 14.3086 17.6329 13.1367L19.7422 11.6133C20.2891 11.2227 20.875 11.0664 21.5 11.1445C22.125 11.2617 22.6329 11.5742 23.0235 12.082C23.4141 12.6289 23.5508 13.2148 23.4336 13.8398C23.3555 14.4648 23.0625 14.9727 22.5547 15.3633L20.3868 16.9453C19.6055 17.5312 18.7657 18.0195 17.8672 18.4102V20.5195H6.61723V18.4102C5.71879 18.0195 4.87894 17.5312 4.09769 16.9453L1.98832 15.3633C1.44144 14.9727 1.12894 14.4648 1.05082 13.8398C0.933631 13.2148 1.07035 12.6289 1.46098 12.082V12.1406ZM6.73441 22.9219L10.25 26.0273L8.7266 28.2539L10.1328 29.6602C10.6016 30.1289 10.836 30.6758 10.836 31.3008C10.836 31.9258 10.6016 32.4727 10.1328 32.9414C9.6641 33.4102 9.11722 33.6445 8.49223 33.6445C7.86723 33.6445 7.32035 33.4102 6.8516 32.9414L4.0391 30.1289C3.60941 29.7383 3.37504 29.2695 3.33597 28.7227C3.29691 28.1367 3.43363 27.6094 3.74613 27.1406L6.67582 22.9219H6.73441ZM14.2344 26.0273L17.8086 22.9219L20.7383 27.1406C21.0508 27.6094 21.1875 28.1367 21.1485 28.7227C21.1094 29.2695 20.875 29.7383 20.4454 30.1289L17.6329 32.9414C17.1641 33.4102 16.6172 33.6445 15.9922 33.6445C15.3672 33.6445 14.8203 33.4102 14.3516 32.9414C13.8828 32.4727 13.6485 31.9258 13.6485 31.3008C13.6485 30.6758 13.8828 30.1289 14.3516 29.6602L15.7578 28.1953L14.2344 26.0273Z" fill="white"/>
</g>
<defs>
<clipPath id="clip0_236_5411">
<rect width="26.25" height="30" fill="white" transform="translate(0.875 3)"/>
</clipPath>
</defs>
</svg>
