<svg width="30" height="30" viewBox="0 0 30 30" fill="none" xmlns="http://www.w3.org/2000/svg">
<path d="M2.8125 18.2227L13.3594 28.125C13.8281 28.5547 14.375 28.7695 15 28.7695C15.625 28.7695 16.1719 28.5547 16.6406 28.125L27.1875 18.2227C29.0234 16.5039 29.9609 14.375 30 11.8359V11.4844C29.9609 9.375 29.2969 7.57812 28.0078 6.09375C26.7188 4.57031 25.0586 3.61328 23.0273 3.22266C21.6602 3.02734 20.332 3.125 19.043 3.51562C17.793 3.90625 16.6797 4.58984 15.7031 5.56641L15 6.26953L14.2969 5.56641C13.3203 4.58984 12.207 3.90625 10.957 3.51562C9.66797 3.125 8.33984 3.02734 6.97266 3.22266C4.94141 3.61328 3.28125 4.57031 1.99219 6.09375C0.703125 7.57812 0.0390625 9.375 0 11.4844V11.8359C0.0390625 14.375 0.976562 16.5039 2.8125 18.2227Z" fill="white"/>
</svg>
