<svg width="38" height="30" viewBox="0 0 38 30" fill="none" xmlns="http://www.w3.org/2000/svg">
<g clip-path="url(#clip0_236_5399)">
<path d="M19.1172 2.51953C18.6484 2.51953 18.1797 2.59766 17.7109 2.75391L1.30469 8.67188C0.71875 8.94531 0.40625 9.39453 0.367187 10.0195C0.40625 10.6445 0.71875 11.0938 1.30469 11.3672L4.70312 12.5977C3.72656 14.1211 3.21875 15.8398 3.17969 17.7539V19.3945C3.0625 21.1133 2.63281 22.6953 1.89062 24.1406C1.5 24.8828 1.05078 25.6055 0.542969 26.3086C0.347656 26.582 0.308594 26.875 0.425781 27.1875C0.542969 27.5 0.757812 27.7148 1.07031 27.832L4.82031 28.7695C5.09375 28.8086 5.34766 28.7695 5.58203 28.6523C5.77734 28.4961 5.91406 28.2812 5.99219 28.0078C6.38281 25.4297 6.34375 23.3203 5.875 21.6797C5.67969 20.8203 5.40625 20 5.05469 19.2188V17.7539C5.09375 15.957 5.64062 14.3555 6.69531 12.9492C7.4375 12.0508 8.39453 11.3672 9.56641 10.8984L18.7656 7.26562C19.3125 7.10938 19.7227 7.28516 19.9961 7.79297C20.1523 8.33984 19.9766 8.75 19.4688 9.02344L10.2695 12.5977C9.52734 12.9102 8.90234 13.3398 8.39453 13.8867L17.7109 17.2852C18.1797 17.4414 18.6484 17.5195 19.1172 17.5195C19.5859 17.5195 20.0547 17.4414 20.5234 17.2852L36.9297 11.3672C37.5156 11.0938 37.8281 10.6445 37.8672 10.0195C37.8281 9.39453 37.5156 8.94531 36.9297 8.67188L20.5234 2.75391C20.0547 2.59766 19.5859 2.51953 19.1172 2.51953ZM7.86719 24.5508C7.94531 25.6445 9.03906 26.6016 11.1484 27.4219C13.2578 28.2812 15.9141 28.7305 19.1172 28.7695C22.3203 28.7305 24.9766 28.2812 27.0859 27.4219C29.1953 26.6016 30.2891 25.6445 30.3672 24.5508L29.4883 16.0547L21.168 19.043C20.5039 19.2773 19.8203 19.3945 19.1172 19.3945C18.4141 19.3945 17.75 19.2773 17.125 19.043L8.74609 16.0547L7.86719 24.5508Z" fill="white"/>
</g>
<defs>
<clipPath id="clip0_236_5399">
<rect width="37.5" height="30" fill="white" transform="translate(0.25)"/>
</clipPath>
</defs>
</svg>
